<?xml version="1.0"?>
<svg xmlns="http://www.w3.org/2000/svg" xmlns:xlink="http://www.w3.org/1999/xlink" version="1.1" x="0px" y="0px" viewBox="0 0 388 388"
	style="" xml:space="preserve" width="4500px" height="2000px">

	<g id="ufo" style="transform: scale(0.45) translate(20px, 350px) rotateZ(-10deg);">
		<path d="M320.8,174.8C308,113.2,256,66.4,194,66.4S80,112.8,67.2,174.8C24,190.4,0,212.8,0,238.4c0,46.8,85.2,83.2,194,83.2    s194-36.4,194-83.2C388,213.2,364.4,190.8,320.8,174.8z M194,81.2c63.6,0,115.2,55.2,115.2,123.2c0,17.2-49.2,36.8-115.2,36.8    S78.8,221.6,78.8,204.4C78.8,136.4,130.4,81.2,194,81.2z M194,306.8c-107.2,0-179.6-35.6-179.6-68.4c0-16.8,18.4-34,50.4-46.8    C64.4,196,64,200,64,204.4c0,33.2,66.8,51.2,130,51.2s130-18,130-51.2c0-4.4-0.4-8.4-0.8-12.8c31.6,12.8,50.4,30,50.4,46.8    C373.6,271.6,301.2,306.8,194,306.8z" fill="#ffffff"/>
		<path d="M186.4,101.6c-0.8-4-4.8-6.4-8.8-5.2c-2.4,0.4-54.4,14-68.8,64.4c-0.8,3.2,1.6,7.2,5.2,8.4c0.8,0,1.2,0.4,2,0.4    c3.2,0,6-2,6.8-5.2c12-42,58-54,58.4-54C185.2,109.6,187.6,105.6,186.4,101.6z" data-original="#000000" class="active-path" data-old_color="#000000" fill="#FFFFFF"/>
	</g>

	<g id="comet" style="transform: scale(0.25) translate(2000px, 400px) rotateZ(140deg);">
		<path d="M418.133,195.267c-33.28,0-59.733,26.453-59.733,59.733c0,33.28,26.453,59.733,59.733,59.733S477.867,288.28,477.867,255     C477.867,221.72,451.413,195.267,418.133,195.267z M459.2,266.77c-1.481-2.035-3.905-3.236-6.933-3.236     c-5.12,0-8.533,3.413-8.533,8.533c0,5.12,3.413,8.533,8.533,8.533c0.071,0,0.139-0.008,0.209-0.009     c-4.847,6.548-11.546,11.606-19.383,14.462c1.34-1.477,2.107-3.505,2.107-5.92c0-5.12-3.413-8.533-8.533-8.533     s-8.533,3.413-8.533,8.533c0,4.121,2.214,7.132,5.746,8.152c-1.878,0.243-3.792,0.381-5.746,0.381     c-23.893,0-42.667-18.773-42.667-42.667c0-23.893,18.773-42.667,42.667-42.667c1.953,0,3.868,0.138,5.746,0.381     c-3.532,1.02-5.746,4.031-5.746,8.152c0,5.12,3.413,8.533,8.533,8.533s8.533-3.413,8.533-8.533c0-2.415-0.767-4.444-2.107-5.92     c7.837,2.857,14.536,7.914,19.383,14.462c-0.071-0.001-0.138-0.009-0.209-0.009c-5.12,0-8.533,3.413-8.533,8.533     s3.413,8.533,8.533,8.533c3.028,0,5.452-1.201,6.933-3.236c1.036,3.728,1.6,7.671,1.6,11.77S460.236,263.041,459.2,266.77z" fill="#ffffff"/>
		<path d="M426.667,246.467c-5.12,0-8.533,3.413-8.533,8.533s3.413,8.533,8.533,8.533S435.2,260.12,435.2,255     S431.787,246.467,426.667,246.467z" fill="#ffffff"/>
		<path d="M512,255c0-52.053-41.813-93.867-93.867-93.867H76.8c-18.773,0-34.133,15.36-34.133,34.133     c0,18.773,15.36,34.133,34.133,34.133h76.8c14.507,0,25.6,11.093,25.6,25.6c0,14.507-11.093,25.6-25.6,25.6h-51.2     c-18.773,0-34.133,15.36-34.133,34.133c0,18.773,15.36,34.133,34.133,34.133h315.733C470.187,348.867,512,307.053,512,255z      M418.133,331.8H102.4c-9.387,0-17.067-7.68-17.067-17.067s7.68-17.067,17.067-17.067h51.2c23.893,0,42.667-18.773,42.667-42.667     c0-23.893-18.773-42.667-42.667-42.667H76.8c-9.387,0-17.067-7.68-17.067-17.067S67.413,178.2,76.8,178.2h341.333     c42.667,0,76.8,34.133,76.8,76.8C494.933,297.667,460.8,331.8,418.133,331.8z" fill="#ffffff"/>
		<path d="M273.067,246.467c-5.12,0-8.533,3.413-8.533,8.533s3.413,8.533,8.533,8.533c5.12,0,8.533-3.413,8.533-8.533     S278.187,246.467,273.067,246.467z" fill="#ffffff"/>
		<path d="M238.933,246.467h-17.067c-5.12,0-8.533,3.413-8.533,8.533s3.413,8.533,8.533,8.533h17.067     c5.12,0,8.533-3.413,8.533-8.533S244.053,246.467,238.933,246.467z" fill="#ffffff"/>
		<path d="M332.8,246.467h-25.6c-5.12,0-8.533,3.413-8.533,8.533s3.413,8.533,8.533,8.533h25.6c5.12,0,8.533-3.413,8.533-8.533     S337.92,246.467,332.8,246.467z" fill="#ffffff"/>
		<path d="M204.8,220.867h68.267c5.12,0,8.533-3.413,8.533-8.533c0-5.12-3.413-8.533-8.533-8.533H204.8     c-5.12,0-8.533,3.413-8.533,8.533C196.267,217.453,199.68,220.867,204.8,220.867z" fill="#ffffff"/>
		<path d="M307.2,220.867h17.067c5.12,0,8.533-3.413,8.533-8.533c0-5.12-3.413-8.533-8.533-8.533H307.2     c-5.12,0-8.533,3.413-8.533,8.533C298.667,217.453,302.08,220.867,307.2,220.867z" fill="#ffffff"/>
		<path d="M324.267,289.133H256c-5.12,0-8.533,3.413-8.533,8.533S250.88,306.2,256,306.2h68.267c5.12,0,8.533-3.413,8.533-8.533     S329.387,289.133,324.267,289.133z" fill="#ffffff"/>
		<path d="M221.867,289.133H204.8c-5.12,0-8.533,3.413-8.533,8.533s3.413,8.533,8.533,8.533h17.067c5.12,0,8.533-3.413,8.533-8.533     S226.987,289.133,221.867,289.133z" fill="#ffffff"/>
		<path d="M435.2,58.733c5.12,0,8.533-3.413,8.533-8.533s-3.413-8.533-8.533-8.533s-8.533,3.413-8.533,8.533     S430.08,58.733,435.2,58.733z" fill="#ffffff"/>
		<path d="M281.6,408.6c-5.12,0-8.533,3.413-8.533,8.533s3.413,8.533,8.533,8.533s8.533-3.413,8.533-8.533     S286.72,408.6,281.6,408.6z" fill="#ffffff"/>
		<path d="M170.667,109.933c5.12,0,8.533-3.413,8.533-8.533s-3.413-8.533-8.533-8.533s-8.533,3.413-8.533,8.533     S165.547,109.933,170.667,109.933z" fill="#ffffff"/>
		<path d="M8.533,442.733c-5.12,0-8.533,3.413-8.533,8.533c0,5.12,3.413,8.533,8.533,8.533s8.533-3.413,8.533-8.533     C17.067,446.147,13.653,442.733,8.533,442.733z" fill="#ffffff"/>
		<path d="M8.533,58.733h13.653l20.48,20.48v13.653c0,5.12,3.413,8.533,8.533,8.533s8.533-3.413,8.533-8.533V79.213l20.48-20.48     h13.653c5.12,0,8.533-3.413,8.533-8.533s-3.413-8.533-8.533-8.533H80.213l-20.48-20.48V7.533C59.733,2.413,56.32-1,51.2-1     s-8.533,3.413-8.533,8.533v13.653l-20.48,20.48H8.533C3.413,41.667,0,45.08,0,50.2S3.413,58.733,8.533,58.733z M51.2,36.547     L64.853,50.2L51.2,63.853L37.547,50.2L51.2,36.547z" fill="#ffffff"/>
		<path d="M503.467,459.8c-14.507,0-25.6-11.093-25.6-25.6c0-5.12-3.413-8.533-8.533-8.533s-8.533,3.413-8.533,8.533     c0,14.507-11.093,25.6-25.6,25.6c-5.12,0-8.533,3.413-8.533,8.533s3.413,8.533,8.533,8.533c14.507,0,25.6,11.093,25.6,25.6     c0,5.12,3.413,8.533,8.533,8.533s8.533-3.413,8.533-8.533c0-14.507,11.093-25.6,25.6-25.6c5.12,0,8.533-3.413,8.533-8.533     S508.587,459.8,503.467,459.8z M469.333,476.867c-2.56-3.413-5.12-5.973-8.533-8.533c3.413-2.56,5.973-5.12,8.533-8.533     c2.56,3.413,5.12,5.973,8.533,8.533C474.453,470.893,471.893,473.453,469.333,476.867z" fill="#ffffff"/>
	</g>

	<g id="satelite" style="transform: scale(0.25) translate(1700px, 1060px);">
		<path d="M197.576,384.017L96,451.737v44.28h400v-112H197.576z M272,480.017h-32v-32h32V480.017z M320,480.017h-32v-32h32V480.017z     M368,480.017h-32v-32h32V480.017z M416,480.017h-32v-32h32V480.017z M480,448.017h-32v16h32v16h-48v-48H224v48H112v-16h64v-16    h-45.576l72-48H480V448.017z" fill="#ffffff"/>
		<polygon points="421.576,224.017 320,291.729 320,368.017 336,368.017 336,300.297 426.416,240.017 432,240.017 432,296.017     384,296.017 384,312.017 432,312.017 432,336.017 384,336.017 384,352.017 432,352.017 432,368.017 448,368.017 448,224.017   " fill="#ffffff"/>
		<path d="M474.28,107.745l-4.016-7.224l-84.824,50.848L301,95.073c1.904-4.656,3-9.728,3-15.056c0-22.056-17.944-40-40-40    c-22.056,0-40,17.944-40,40c0,20.808,16.032,37.76,36.352,39.632l11.12,100.048l-82.224,49.296l3.76,6.768    c23.432,42.136,63.304,71.688,109.384,81.088l3.192-15.68c-24.968-5.088-47.872-16.832-66.808-33.616l192.248-116.696    l-8.304-13.68L227.112,295.913c-5.928-6.568-11.416-13.608-16.192-21.264l253.208-151.8    c23.392,47.856,20.936,104.816-6.968,150.576l13.664,8.328C503.152,228.721,504.48,162.049,474.28,107.745z M264,104.017    c-13.232,0-24-10.768-24-24c0-13.232,10.768-24,24-24s24,10.768,24,24C288,93.249,277.232,104.017,264,104.017z M286.56,210.649    l-10.304-92.752c6.024-1.96,11.488-5.144,15.888-9.504l78.12,52.08L286.56,210.649z" fill="#ffffff"/>
		<rect x="438.71" y="163.184" transform="matrix(0.8549 -0.5188 0.5188 0.8549 -23.7995 257.2756)" width="18.64" height="16" fill="#ffffff"/>
		<rect x="352" y="336.02" width="16" height="16" fill="#ffffff"/>
		<path d="M88,0.017c-48.52,0-88,39.48-88,88c0,48.52,39.48,88,88,88s88-39.48,88-88C176,39.497,136.52,0.017,88,0.017z     M124.416,26.017c-2.976,3.688-7.488,6-12.416,6c-8.664,0-15.688-6.92-15.952-15.52C106.32,17.649,115.912,20.993,124.416,26.017z     M141.72,135.785c-7.736-1.12-13.72-7.728-13.72-15.768c0-8.824,7.176-16,16-16c4.976,0,9.448,2.336,12.464,6.176    C153.36,119.769,148.272,128.433,141.72,135.785z M144,88.017c-17.648,0-32,14.352-32,32c0,11.888,6.592,22.16,16.24,27.68    c-11.496,7.776-25.344,12.32-40.24,12.32c-39.696,0-72-32.304-72-72c0-37.008,28.08-67.56,64.048-71.536    C80.304,33.905,94.512,48.017,112,48.017c10.048,0,19.296-4.736,25.248-12.376C151.216,48.785,160,67.369,160,88.017    c0,1.392-0.128,2.76-0.208,4.136C155.072,89.481,149.672,88.017,144,88.017z" fill="#ffffff"/>
		<path d="M40,56.017v16c8.824,0,16,7.176,16,16c0,8.824-7.176,16-16,16v16c17.648,0,32-14.352,32-32    C72,70.369,57.648,56.017,40,56.017z" fill="#ffffff"/>
		<path d="M392,40.017c-13.232,0-24,10.768-24,24c0,13.232,10.768,24,24,24s24-10.768,24-24C416,50.785,405.232,40.017,392,40.017z     M392,72.017c-4.408,0-8-3.592-8-8c0-4.408,3.592-8,8-8c4.408,0,8,3.592,8,8C400,68.425,396.408,72.017,392,72.017z" fill="#ffffff"/>
		<path d="M24,344.017c-13.232,0-24,10.768-24,24s10.768,24,24,24s24-10.768,24-24S37.232,344.017,24,344.017z M24,376.017    c-4.408,0-8-3.592-8-8c0-4.408,3.592-8,8-8s8,3.592,8,8C32,372.425,28.408,376.017,24,376.017z" fill="#ffffff"/>
		<path d="M88,240.017c-13.232,0-24,10.768-24,24s10.768,24,24,24s24-10.768,24-24S101.232,240.017,88,240.017z M88,272.017    c-4.408,0-8-3.592-8-8c0-4.408,3.592-8,8-8s8,3.592,8,8C96,268.425,92.408,272.017,88,272.017z" fill="#ffffff"/>
		<path d="M176,320.017c-13.232,0-24,10.768-24,24s10.768,24,24,24s24-10.768,24-24S189.232,320.017,176,320.017z M176,352.017    c-4.408,0-8-3.592-8-8c0-4.408,3.592-8,8-8s8,3.592,8,8C184,348.425,180.408,352.017,176,352.017z" fill="#ffffff"/>
		<rect x="56" y="464.02" width="16" height="16" fill="#ffffff"/>
		<rect y="240.02" width="16" height="16" fill="#ffffff"/>
		<rect x="96" y="328.02" width="16" height="16" fill="#ffffff"/>
		<rect x="208" y="144.02" width="16" height="16" fill="#ffffff"/>
		<rect x="192" y="0.017" width="16" height="16" fill="#ffffff"/>
		<rect x="480" y="40.02" width="16" height="16" fill="#ffffff"/>
		<rect x="360" y="0.017" width="16" height="16" fill="#ffffff"/>
		<rect x="192" y="448.02" width="16" height="16" fill="#ffffff"/>
	</g>

	<g id="solarSystem" style="transform: scale(0.25) translate(-800px, 300px) rotateZ(-20deg);">
		<path d="M127,152.6c5.12,0,8.533-3.413,8.533-8.533c0-5.12-3.413-8.533-8.533-8.533s-8.533,3.413-8.533,8.533     C118.467,149.187,121.88,152.6,127,152.6z" fill="#ffffff"/>
		<path d="M323.267,485.4c-5.12,0-8.533,3.413-8.533,8.533s3.413,8.533,8.533,8.533s8.533-3.413,8.533-8.533     S328.387,485.4,323.267,485.4z" fill="#ffffff"/>
		<path d="M493.933,417.133c-5.12,0-8.533,3.413-8.533,8.533s3.413,8.533,8.533,8.533s8.533-3.413,8.533-8.533     S499.053,417.133,493.933,417.133z" fill="#ffffff"/>
		<path d="M434.2,195.267c5.12,0,8.533-3.413,8.533-8.533s-3.413-8.533-8.533-8.533s-8.533,3.413-8.533,8.533     S429.08,195.267,434.2,195.267z" fill="#ffffff"/>
		<path d="M476.867,33.133c5.12,0,8.533-3.413,8.533-8.533s-3.413-8.533-8.533-8.533s-8.533,3.413-8.533,8.533     S471.747,33.133,476.867,33.133z" fill="#ffffff"/>
		<path d="M323.267,348.867c0-21.685-4.26-42.365-11.97-61.265c-23.16-60.125-82.188-102.575-151.016-102.575     c-17.92,0-35.84,3.413-53.76,9.387l-4.267,1.707l-0.289,1.737C41.662,221.478-1,280.152-1,348.867     c0,27.741,6.959,53.842,19.218,76.665c0.116,0.335,0.247,0.667,0.408,0.989c2.007,3.601,4.148,7.097,6.393,10.506     c27.012,41.642,72.616,70.078,125.094,73.594c0.034,0.002,0.067,0.004,0.101,0.006c1.592,0.106,3.19,0.188,4.794,0.247     c0.34,0.013,0.68,0.028,1.021,0.039c1.695,0.052,3.395,0.088,5.103,0.088c1.086,0,2.166-0.016,3.244-0.041     c11.451-0.224,22.611-1.625,33.359-4.101c2.852-0.572,5.722-1.186,8.623-1.831c0.487-0.244,0.955-0.526,1.402-0.834     C274.603,484.18,323.267,422.254,323.267,348.867z M137.24,287.427c1.707,0.853,3.413,1.707,5.12,2.56     c11.093,5.12,20.48,9.387,27.307,6.827c6.827-1.707,11.947-8.533,13.653-16.213c2.56-8.533,0-17.92-5.12-23.04     c-0.853-0.853,0-3.413,0-3.413c0.853,0.853,1.707,0.853,3.413,3.413c5.12,5.12,11.093,6.827,17.92,4.267     c11.947-3.413,19.627-18.773,21.333-31.573c0.853-3.413,0.853-7.68,0-11.093c44.373,19.627,76.8,62.293,82.773,113.493h-3.413     c-5.12-4.267-12.8-10.24-21.333-7.68c-11.093,4.267-12.8,17.92-14.507,29.013c0,2.56-0.853,5.973-0.853,6.827     c-3.413,5.12-7.68,7.68-12.8,7.68c-11.093,0-23.893-10.24-30.72-20.48c-0.853-1.707-0.853-4.267-1.707-6.827     c-0.853-5.12-1.707-11.093-7.68-14.507c-2.56-0.853-4.267-1.707-6.827-1.707c-4.267,0-9.387,1.707-15.36,2.56l-1.707,0.853     c-13.653,5.973-13.653,5.973-20.48,0.853c-1.707-1.707-2.56-3.413-3.413-5.973c-1.707-5.973-6.827-18.773-26.453-13.653     c-1.707,0-2.56,0.853-3.413,0.853C136.387,304.493,138.947,296.813,137.24,287.427z M109.08,227.693     c2.56-4.267,5.973-9.387,7.68-15.36c23.04-6.827,47.787-8.533,69.973-5.12c0,0.853-0.853,0.853-0.853,0.853     c-5.12,2.56-13.653,5.973-16.213,5.973c-14.507,0-26.453,8.533-36.693,15.36c-5.12,3.413-9.387,6.827-14.507,9.387     c-4.267,2.56-7.68-0.853-8.533-1.707C108.227,234.52,106.52,231.107,109.08,227.693z M186.733,442.733h30.72l-4.267,12.8     l-15.36,15.36c-1.707,1.707-2.56,3.413-2.56,5.973v12.8c-11.093,2.56-23.04,4.267-34.133,4.267c-1.472,0-2.941-0.027-4.407-0.072     c-0.295-0.009-0.588-0.023-0.882-0.033c-1.312-0.048-2.622-0.109-3.928-0.193c-0.105-0.007-0.21-0.013-0.314-0.02     c-41.835-2.781-80.499-23.742-105.91-56.824c-0.184-0.241-0.371-0.48-0.554-0.722c-0.404-0.533-0.795-1.077-1.192-1.617     c-2.292-3.135-4.463-6.364-6.502-9.683l17.876-17.876l15.36-7.68l29.867-7.68l10.24,6.827c0,0.853,0,0.853,0.853,0.853     l20.48,8.533c0.853,0.853,2.56,0.853,3.413,0.853h23.893l18.773,5.973V434.2C178.2,439.32,181.613,442.733,186.733,442.733z      M212.333,484.654v-4.374l14.507-15.36c0.853-0.853,1.707-2.56,1.707-3.413l8.533-25.6c0.853-2.56,0.853-5.12-0.853-7.68     c-1.707-1.707-4.267-3.413-6.827-3.413h-34.133v-17.067c0-3.413-2.56-6.827-5.973-7.68l-25.6-8.533     c-0.853-0.853-1.707-0.853-2.56-0.853H137.24L118.467,383l-12.8-7.68c-2.56-0.853-4.267-1.707-6.827-0.853L64.707,383     c-0.853,0-0.853,0.853-1.707,0.853l-17.067,8.533c-0.853,0.853-1.707,0.853-2.56,1.707l-14.509,14.509     c-8.223-18.21-12.798-38.431-12.798-59.736c0-55.137,30.643-103.016,75.853-127.564c-2.752,8.224-1.015,17.39,5.213,24.31     c7.68,8.533,18.773,11.093,29.013,5.973c5.973-3.413,11.947-6.827,17.067-11.093c8.533-5.973,17.067-11.947,26.453-11.947     c6.827,0,14.507-3.413,23.04-6.827c4.267-0.853,9.387-3.413,11.947-4.267c2.56,3.413,1.707,10.24,0.853,11.947     c-2.56,8.533-7.68,14.507-10.24,14.507c-11.093-10.24-20.48-7.68-26.453-2.56c-6.827,6.827-8.533,19.627-1.707,27.307     c1.707,1.707,2.56,5.12,1.707,7.68c0,1.707-1.707,3.413-2.56,4.267c-2.56-0.853-10.24-4.267-14.507-5.973     c-11.947-5.12-21.333-10.24-28.16-3.413c-5.973,5.973-1.707,14.507-0.853,17.067c2.56,6.827-0.853,13.653-5.12,20.48     c-3.413,5.12-6.827,11.093-2.56,17.067c4.267,6.827,13.653,5.12,27.307,1.707c3.413-0.853,5.12-0.853,5.12-0.853     c0.853,0.853,1.707,2.56,1.707,3.413c1.707,4.267,3.413,9.387,8.533,13.653c13.653,11.093,18.773,9.387,37.547,0.853l2.56-1.707     c1.707-0.853,3.413-1.707,4.267-1.707v0.853c0,4.267,0.853,9.387,4.267,13.653c8.533,13.653,26.453,28.16,45.227,28.16     c8.533,0,19.627-2.56,28.16-16.213c1.707-2.56,2.56-6.827,3.413-12.8c0-3.413,0.853-10.24,2.56-13.653     c0.853,0.853,3.413,1.707,5.973,5.12l2.56,2.56H306.2C306.2,411.048,267.223,463.99,212.333,484.654z" fill="#ffffff"/>
		<path d="M297.667-1C245.613-1,203.8,40.813,203.8,92.867c0,20.831,6.702,40.018,18.071,55.546     c0.388,0.74,0.883,1.395,1.471,1.956c17.13,22.157,43.986,36.365,74.325,36.365c52.053,0,93.867-41.813,93.867-93.867     C391.533,40.813,349.72-1,297.667-1z M297.667,169.667c-18.438,0-35.275-6.384-48.46-17.067h48.46     c5.12,0,8.533-3.413,8.533-8.533c0-5.12-3.413-8.533-8.533-8.533h-63.995c-6.619-9.956-10.964-21.571-12.331-34.133h42.193     c5.12,0,8.533-3.413,8.533-8.533c0-5.12-3.413-8.533-8.533-8.533h-42.193c0.994-9.135,3.566-17.766,7.441-25.626     c0.205,0.011,0.408,0.026,0.619,0.026h85.333c5.12,0,8.533-3.413,8.533-8.533s-3.413-8.533-8.533-8.533h-74.469     c14.027-15.737,34.478-25.6,57.402-25.6c33.672,0,62.012,21.266,72.473,51.2h-21.273c-5.12,0-8.533,3.413-8.533,8.533     s3.413,8.533,8.533,8.533h25.126c0.305,2.802,0.474,5.646,0.474,8.533c0,5.876-0.669,11.581-1.897,17.067h-49.303     c-5.12,0-8.533,3.413-8.533,8.533s3.413,8.533,8.533,8.533h43.299C354.076,152.361,328.04,169.667,297.667,169.667z" fill="#ffffff"/>
		<path d="M511,306.2c0-33.28-26.453-59.733-59.733-59.733c-33.28,0-59.733,26.453-59.733,59.733s26.453,59.733,59.733,59.733     C484.547,365.933,511,339.48,511,306.2z M451.267,348.867c-23.893,0-42.667-18.773-42.667-42.667c0-2.93,0.286-5.782,0.825-8.533     H434.2c5.12,0,8.533-3.413,8.533-8.533s-3.413-8.533-8.533-8.533h-17.27c7.715-10.418,20.118-17.067,34.336-17.067     c23.893,0,42.667,18.773,42.667,42.667c0,2.93-0.286,5.782-0.825,8.533h-24.775c-5.12,0-8.533,3.413-8.533,8.533     s3.413,8.533,8.533,8.533h17.27C477.888,342.218,465.484,348.867,451.267,348.867z" fill="#ffffff"/>
		<path d="M7.533,58.733h13.653l20.48,20.48v13.653c0,5.12,3.413,8.533,8.533,8.533s8.533-3.413,8.533-8.533V79.213l20.48-20.48     h13.653c5.12,0,8.533-3.413,8.533-8.533s-3.413-8.533-8.533-8.533H79.213l-20.48-20.48V7.533C58.733,2.413,55.32-1,50.2-1     s-8.533,3.413-8.533,8.533v13.653l-20.48,20.48H7.533C2.413,41.667-1,45.08-1,50.2S2.413,58.733,7.533,58.733z M50.2,36.547     L63.853,50.2L50.2,63.853L36.547,50.2L50.2,36.547z" fill="#ffffff"/>
	</g>

</svg>
