<?xml version="1.0"?>
<svg xmlns="http://www.w3.org/2000/svg" xmlns:xlink="http://www.w3.org/1999/xlink" version="1.1" x="0px" y="0px" viewBox="0 0 512 512" style="enable-background: new 0 0 512 512;" xml:space="preserve" width="512px" height="512px">

	<g>
		<path d="M448.67 0C483.64 0 512 28.35 512 63.33C512 153.06 512 358.94 512 448.67C512 483.65 483.64 512 448.67 512C358.93 512 153.06 512 63.32 512C28.35 512 0 483.65 0 448.67C0 358.94 0 153.06 0 63.33C0 28.35 28.35 0 63.32 0C153.06 0 358.93 0 448.67 0Z" fill="#1d2130"/>
	</g>
	<g style="transform: scale(1.05) translate(50px, 50px);">
		<path d="M320.8,174.8C308,113.2,256,66.4,194,66.4S80,112.8,67.2,174.8C24,190.4,0,212.8,0,238.4c0,46.8,85.2,83.2,194,83.2    s194-36.4,194-83.2C388,213.2,364.4,190.8,320.8,174.8z M194,81.2c63.6,0,115.2,55.2,115.2,123.2c0,17.2-49.2,36.8-115.2,36.8    S78.8,221.6,78.8,204.4C78.8,136.4,130.4,81.2,194,81.2z M194,306.8c-107.2,0-179.6-35.6-179.6-68.4c0-16.8,18.4-34,50.4-46.8    C64.4,196,64,200,64,204.4c0,33.2,66.8,51.2,130,51.2s130-18,130-51.2c0-4.4-0.4-8.4-0.8-12.8c31.6,12.8,50.4,30,50.4,46.8    C373.6,271.6,301.2,306.8,194,306.8z" fill="#ffffff"/>
		<path d="M186.4,101.6c-0.8-4-4.8-6.4-8.8-5.2c-2.4,0.4-54.4,14-68.8,64.4c-0.8,3.2,1.6,7.2,5.2,8.4c0.8,0,1.2,0.4,2,0.4    c3.2,0,6-2,6.8-5.2c12-42,58-54,58.4-54C185.2,109.6,187.6,105.6,186.4,101.6z" fill="#FFFFFF"/>
	</g>
</svg>
