<?xml version="1.0"?>
<svg xmlns="http://www.w3.org/2000/svg" xmlns:xlink="http://www.w3.org/1999/xlink" version="1.1" x="0px" y="0px" viewBox="0 0 465.92 465.92" style="enable-background:new 0 0 465.92 465.92;" xml:space="preserve" width="512px" height="512px"><g transform="matrix(1, 0, 0, -1, 2.84217e-14, 465.92)">
	<g>
		<path d="M232.96,104.08c-2.827,0-5.493,0-8,0c0.623-0.642,1.322-1.206,2.08-1.68c7.217-3.55,12.614-9.963,14.88-17.68    c0.766-3.78-0.043-7.71-2.24-10.88c-2.841-3.384-7.887-3.825-11.271-0.984c-2.612,2.192-3.547,5.799-2.329,8.984    c-1.81,2.885-4.386,5.212-7.44,6.72c-6.499,3.366-10.685,9.967-10.96,17.28c-33.2,6.4-56.64,25.12-56.64,48v261.92    c0,28.16,36.16,50.16,82.32,50.16s82.24-22.08,82.24-50.16V154.32C315.2,126.16,279.12,104.08,232.96,104.08z M299.2,416.08    c0,16.48-26.64,34.16-66.24,34.16s-66.32-17.68-66.32-34.16v-68.72c19.206,13.996,42.574,21.1,66.32,20.16    c23.719,0.922,47.056-6.181,66.24-20.16V416.08z M299.2,317.68c0,16.48-26.64,34.16-66.24,34.16s-66.32-17.68-66.32-34.16v-19.36    c19.206,13.996,42.574,21.1,66.32,20.16c23.719,0.922,47.056-6.181,66.24-20.16V317.68z M299.2,268.64    c0,16.48-26.64,34.16-66.24,34.16s-66.32-17.68-66.32-34.16v-84.32c19.206,13.996,42.574,21.1,66.32,20.16    c23.719,0.922,47.056-6.181,66.24-20.16V268.64z M232.96,188.48c-40,0-66.32-17.68-66.32-34.16c0-13.52,17.92-27.84,46.24-32.56    c3.439,4.598,7.505,8.691,12.08,12.16v12.32h-10c-4.418,0-8,3.582-8,8s3.582,8,8,8h36.08c4.418,0,8-3.582,8-8s-3.582-8-8-8h-10.08    v-16.4c0.004-2.661-1.315-5.15-3.52-6.64c-1.413-0.969-2.774-2.011-4.08-3.12c39.44,0,65.84,17.68,65.84,34.16    C299.2,170.72,272.96,188.48,232.96,188.48z" fill="#ffffff"/>
		<path d="M232.96,0c-4.418,0-8,3.582-8,8v47.28c0,4.418,3.582,8,8,8s8-3.582,8-8V8C240.96,3.582,237.378,0,232.96,0z" fill="#ffffff"/>
		<path d="M303.2,19.36c-3.402-2.828-8.452-2.362-11.28,1.04l-29.44,35.36c-2.828,3.395-2.368,8.439,1.027,11.267    c1.441,1.2,3.258,1.856,5.133,1.853c2.379,0.004,4.637-1.052,6.16-2.88l29.44-35.36C307.068,27.238,306.602,22.188,303.2,19.36z" fill="#ffffff"/>
		<path d="M344.84,28.76c-3.004-3.247-8.073-3.444-11.32-0.44l-54.88,50.56c-3.247,3.004-3.444,8.073-0.44,11.32    c3.004,3.247,8.073,3.444,11.32,0.44l54.88-50.56C347.647,37.076,347.844,32.007,344.84,28.76z" fill="#ffffff"/>
		<path d="M203.44,55.76L173.92,20.4c-2.828-3.402-7.878-3.868-11.28-1.04c-3.402,2.828-3.868,7.878-1.04,11.28L191.12,66    c2.828,3.402,7.878,3.868,11.28,1.04C205.802,64.212,206.268,59.162,203.44,55.76z" fill="#ffffff"/>
		<path d="M187.28,78.88L132.4,28.32c-3.247-3.004-8.316-2.807-11.32,0.44c-3.004,3.247-2.807,8.316,0.44,11.32l54.88,50.56    c1.475,1.381,3.419,2.153,5.44,2.16c4.418,0.033,8.026-3.522,8.059-7.94C189.916,82.585,188.964,80.41,187.28,78.88z" fill="#ffffff"/>
	</g></g>
</svg>
